<svg width="22" height="20" fill="none" xmlns="http://www.w3.org/2000/svg"><path d="M20.018 12.836l-.245.708.245-.708zm0-5.672l.245.71-.245-.71zM1.982 12.836l.245.708-.245-.708zm0-5.672l-.245.71.245-.71zm12.548.366a.75.75 0 00-1.06-1.06l1.06 1.06zm-7.06 4.94a.75.75 0 101.06 1.06l-1.06-1.06zM5 18.25A3.25 3.25 0 011.75 15H.25A4.75 4.75 0 005 19.75v-1.5zM20.25 15A3.25 3.25 0 0117 18.25v1.5A4.75 4.75 0 0021.75 15h-1.5zM17 1.75A3.25 3.25 0 0120.25 5h1.5A4.75 4.75 0 0017 .25v1.5zM5 .25A4.75 4.75 0 00.25 5h1.5A3.25 3.25 0 015 1.75V.25zm15.264 11.877A2.251 2.251 0 0118.75 10h-1.5a3.751 3.751 0 002.523 3.544l.49-1.417zM18.75 10a2.25 2.25 0 011.514-2.127l-.491-1.417A3.751 3.751 0 0017.25 10h1.5zm-15.5 0c0 .984-.632 1.822-1.513 2.127l.49 1.417A3.751 3.751 0 004.75 10h-1.5zM1.737 7.873A2.251 2.251 0 013.25 10h1.5a3.751 3.751 0 00-2.523-3.544l-.49 1.417zM21.75 6V5h-1.5v1h1.5zm-1.5 8v1h1.5v-1h-1.5zm-20 0v1h1.5v-1H.25zm1.5-8V5H.25v1h1.5zM17 18.25H5v1.5h12v-1.5zm0-18H5v1.5h12V.25zM1.737 12.127C1.057 12.362.25 12.997.25 14h1.5c0-.056.02-.13.102-.219a.92.92 0 01.375-.237l-.49-1.417zm18.527-4.254c.678-.235 1.486-.87 1.486-1.873h-1.5c0 .056-.02.13-.102.219a.921.921 0 01-.375.237l.49 1.417zM2.227 6.456a.921.921 0 01-.375-.237C1.77 6.129 1.75 6.056 1.75 6H.25c0 1.002.808 1.638 1.487 1.873l.49-1.417zm17.546 7.088a.92.92 0 01.375.237c.081.09.102.163.102.219h1.5c0-1.002-.808-1.638-1.486-1.873l-.491 1.417zM8.25 7a.25.25 0 01-.25.25v1.5A1.75 1.75 0 009.75 7h-1.5zM8 7.25A.25.25 0 017.75 7h-1.5c0 .966.784 1.75 1.75 1.75v-1.5zM7.75 7A.25.25 0 018 6.75v-1.5A1.75 1.75 0 006.25 7h1.5zM8 6.75a.25.25 0 01.25.25h1.5A1.75 1.75 0 008 5.25v1.5zM14.25 13a.25.25 0 01-.25.25v1.5A1.75 1.75 0 0015.75 13h-1.5zm-.25.25a.25.25 0 01-.25-.25h-1.5c0 .966.784 1.75 1.75 1.75v-1.5zm-.25-.25a.25.25 0 01.25-.25v-1.5A1.75 1.75 0 0012.25 13h1.5zm.25-.25a.25.25 0 01.25.25h1.5A1.75 1.75 0 0014 11.25v1.5zm-.53-6.28l-6 6 1.06 1.06 6-6-1.06-1.06z" fill="#FEFEFE"/></svg>